<svg xmlns="http://www.w3.org/2000/svg" xmlns:xlink="http://www.w3.org/1999/xlink" width="72px" height="76px" viewBox="0 0 72 76"><title>Icon</title><g id="Page-1" stroke="none" stroke-width="1" fill="none" fill-rule="evenodd"><g id="01.-Home-xsaap-product" transform="translate(-1351.000000, -3819.000000)"><g id="Services" transform="translate(-1.000000, 3252.000000)"><g id="Cards" transform="translate(979.000000, 150.000000)"><g id="4" transform="translate(280.000000, 390.000000)"><g id="Icon" transform="translate(93.000000, 27.000000)"><path d="M35.6206507,62.993172 C51.9796844,62.993172 66,49.6836484 66,31.5850094 C66,13.4863704 51.9796844,13 35.6206507,13 C19.261617,13 6,27.6720884 6,45.7707274 C6,63.8693664 19.261617,62.993172 35.6206507,62.993172 Z" id="Oval" fill="#FFDC98" transform="translate(36.000000, 38.000000) rotate(-114.000000) translate(-36.000000, -38.000000) "></path><g id="Artboard-23" transform="translate(7.000000, 3.000000)" fill-rule="nonzero"><rect id="Rectangle" fill="#376CFB" x="45" y="3" width="5" height="4"></rect><rect id="Rectangle" fill="#E6ECFF" x="1" y="33" width="52" height="24" rx="3"></rect><rect id="Rectangle" fill="#4294FF" x="39" y="50" width="4" height="4"></rect><rect id="Rectangle" fill="#4294FF" x="46" y="50" width="4" height="4"></rect><rect id="Rectangle" fill="#4294FF" x="11" y="50" width="4" height="4"></rect><rect id="Rectangle" fill="#4294FF" x="4" y="50" width="4" height="4"></rect><rect id="Rectangle" fill="#4294FF" x="25" y="43" width="4" height="4"></rect><rect id="Rectangle" fill="#4294FF" x="18" y="50" width="18" height="4"></rect><rect id="Rectangle" fill="#4294FF" x="32" y="43" width="4" height="4"></rect><rect id="Rectangle" fill="#4294FF" x="39" y="43" width="4" height="4"></rect><rect id="Rectangle" fill="#4294FF" x="46" y="43" width="4" height="4"></rect><rect id="Rectangle" fill="#4294FF" x="18" y="43" width="4" height="4"></rect><rect id="Rectangle" fill="#4294FF" x="11" y="43" width="4" height="4"></rect><rect id="Rectangle" fill="#4294FF" x="4" y="43" width="4" height="4"></rect><rect id="Rectangle" fill="#4294FF" x="25" y="36" width="4" height="4"></rect><rect id="Rectangle" fill="#4294FF" x="32" y="36" width="4" height="4"></rect><rect id="Rectangle" fill="#4294FF" x="39" y="36" width="4" height="4"></rect><rect id="Rectangle" fill="#4294FF" x="46" y="36" width="4" height="4"></rect><rect id="Rectangle" fill="#4294FF" x="18" y="36" width="4" height="4"></rect><rect id="Rectangle" fill="#4294FF" x="11" y="36" width="4" height="4"></rect><rect id="Rectangle" fill="#4294FF" x="4" y="36" width="4" height="4"></rect><rect id="Rectangle" fill="#4294FF" x="35" y="1" width="10" height="8"></rect><path d="M50,32 L46,32 L46,28 C45.9953165,24.1359484 42.8640516,21.0046835 39,21 L14.5,21 C10.3578644,21 7,17.6421356 7,13.5 C7,9.35786438 10.3578644,6 14.5,6 L34,6 L34,9 C34,9.55228475 34.4477153,10 35,10 L45,10 C45.5522847,10 46,9.55228475 46,9 L46,8 L50,8 C50.5522847,8 51,7.55228475 51,7 L51,3 C51,2.44771525 50.5522847,2 50,2 L46,2 L46,1 C46,0.44771525 45.5522847,0 45,0 L35,0 C34.4477153,0 34,0.44771525 34,1 L34,4 L14.5,4 C9.25329495,4 5,8.25329495 5,13.5 C5,18.746705 9.25329495,23 14.5,23 L39,23 C41.760076,23.0032511 43.9967489,25.239924 44,28 L44,32 L4,32 C1.79182059,32.0023149 0.00231494425,33.7918206 0,36 L0,54 C0.00231494425,56.2081794 1.79182059,57.9976851 4,58 L50,58 C52.2082479,57.9978501 53.9978501,56.2082479 54,54 L54,36 C53.9978501,33.7917521 52.2082479,32.0021499 50,32 Z M49,4 L49,6 L46,6 L46,4 L49,4 Z M36,2 L44,2 L44,8 L36,8 L36,2 Z M52,54 C51.9985127,55.1039528 51.1039528,55.9985127 50,56 L4,56 C2.89595593,55.9987325 2.00126747,55.1040441 2,54 L2,36 C2.00126747,34.8959559 2.89595593,34.0012675 4,34 L50,34 C51.1039528,34.0014873 51.9985127,34.8960472 52,36 L52,54 Z" id="Shape" fill="#232328"></path><path d="M43,49 L39,49 C38.4477153,49 38,49.4477153 38,50 L38,54 C38,54.5522847 38.4477153,55 39,55 L43,55 C43.5522847,55 44,54.5522847 44,54 L44,50 C44,49.4477153 43.5522847,49 43,49 Z M42,53 L40,53 L40,51 L42,51 L42,53 Z" id="Shape" fill="#232328"></path><path d="M50,49 L46,49 C45.4477153,49 45,49.4477153 45,50 L45,54 C45,54.5522847 45.4477153,55 46,55 L50,55 C50.5522847,55 51,54.5522847 51,54 L51,50 C51,49.4477153 50.5522847,49 50,49 Z M49,53 L47,53 L47,51 L49,51 L49,53 Z" id="Shape" fill="#232328"></path><path d="M15,49 L11,49 C10.4477153,49 10,49.4477153 10,50 L10,54 C10,54.5522847 10.4477153,55 11,55 L15,55 C15.5522847,55 16,54.5522847 16,54 L16,50 C16,49.4477153 15.5522847,49 15,49 Z M14,53 L12,53 L12,51 L14,51 L14,53 Z" id="Shape" fill="#232328"></path><path d="M8,49 L4,49 C3.44771525,49 3,49.4477153 3,50 L3,54 C3,54.5522847 3.44771525,55 4,55 L8,55 C8.55228475,55 9,54.5522847 9,54 L9,50 C9,49.4477153 8.55228475,49 8,49 Z M7,53 L5,53 L5,51 L7,51 L7,53 Z" id="Shape" fill="#232328"></path><path d="M25,48 L29,48 C29.5522847,48 30,47.5522847 30,47 L30,43 C30,42.4477153 29.5522847,42 29,42 L25,42 C24.4477153,42 24,42.4477153 24,43 L24,47 C24,47.5522847 24.4477153,48 25,48 Z M26,44 L28,44 L28,46 L26,46 L26,44 Z" id="Shape" fill="#232328"></path><path d="M36,49 L18,49 C17.4477153,49 17,49.4477153 17,50 L17,54 C17,54.5522847 17.4477153,55 18,55 L36,55 C36.5522847,55 37,54.5522847 37,54 L37,50 C37,49.4477153 36.5522847,49 36,49 Z M35,53 L19,53 L19,51 L35,51 L35,53 Z" id="Shape" fill="#232328"></path><path d="M36,42 L32,42 C31.4477153,42 31,42.4477153 31,43 L31,47 C31,47.5522847 31.4477153,48 32,48 L36,48 C36.5522847,48 37,47.5522847 37,47 L37,43 C37,42.4477153 36.5522847,42 36,42 Z M35,46 L33,46 L33,44 L35,44 L35,46 Z" id="Shape" fill="#232328"></path><path d="M43,42 L39,42 C38.4477153,42 38,42.4477153 38,43 L38,47 C38,47.5522847 38.4477153,48 39,48 L43,48 C43.5522847,48 44,47.5522847 44,47 L44,43 C44,42.4477153 43.5522847,42 43,42 Z M42,46 L40,46 L40,44 L42,44 L42,46 Z" id="Shape" fill="#232328"></path><path d="M50,42 L46,42 C45.4477153,42 45,42.4477153 45,43 L45,47 C45,47.5522847 45.4477153,48 46,48 L50,48 C50.5522847,48 51,47.5522847 51,47 L51,43 C51,42.4477153 50.5522847,42 50,42 Z M49,46 L47,46 L47,44 L49,44 L49,46 Z" id="Shape" fill="#232328"></path><path d="M18,48 L22,48 C22.5522847,48 23,47.5522847 23,47 L23,43 C23,42.4477153 22.5522847,42 22,42 L18,42 C17.4477153,42 17,42.4477153 17,43 L17,47 C17,47.5522847 17.4477153,48 18,48 Z M19,44 L21,44 L21,46 L19,46 L19,44 Z" id="Shape" fill="#232328"></path><path d="M15,42 L11,42 C10.4477153,42 10,42.4477153 10,43 L10,47 C10,47.5522847 10.4477153,48 11,48 L15,48 C15.5522847,48 16,47.5522847 16,47 L16,43 C16,42.4477153 15.5522847,42 15,42 Z M14,46 L12,46 L12,44 L14,44 L14,46 Z" id="Shape" fill="#232328"></path><path d="M8,42 L4,42 C3.44771525,42 3,42.4477153 3,43 L3,47 C3,47.5522847 3.44771525,48 4,48 L8,48 C8.55228475,48 9,47.5522847 9,47 L9,43 C9,42.4477153 8.55228475,42 8,42 Z M7,46 L5,46 L5,44 L7,44 L7,46 Z" id="Shape" fill="#232328"></path><path d="M25,41 L29,41 C29.5522847,41 30,40.5522847 30,40 L30,36 C30,35.4477153 29.5522847,35 29,35 L25,35 C24.4477153,35 24,35.4477153 24,36 L24,40 C24,40.5522847 24.4477153,41 25,41 Z M26,37 L28,37 L28,39 L26,39 L26,37 Z" id="Shape" fill="#232328"></path><path d="M36,35 L32,35 C31.4477153,35 31,35.4477153 31,36 L31,40 C31,40.5522847 31.4477153,41 32,41 L36,41 C36.5522847,41 37,40.5522847 37,40 L37,36 C37,35.4477153 36.5522847,35 36,35 Z M35,39 L33,39 L33,37 L35,37 L35,39 Z" id="Shape" fill="#232328"></path><path d="M43,35 L39,35 C38.4477153,35 38,35.4477153 38,36 L38,40 C38,40.5522847 38.4477153,41 39,41 L43,41 C43.5522847,41 44,40.5522847 44,40 L44,36 C44,35.4477153 43.5522847,35 43,35 Z M42,39 L40,39 L40,37 L42,37 L42,39 Z" id="Shape" fill="#232328"></path><path d="M50,35 L46,35 C45.4477153,35 45,35.4477153 45,36 L45,40 C45,40.5522847 45.4477153,41 46,41 L50,41 C50.5522847,41 51,40.5522847 51,40 L51,36 C51,35.4477153 50.5522847,35 50,35 Z M49,39 L47,39 L47,37 L49,37 L49,39 Z" id="Shape" fill="#232328"></path><path d="M18,41 L22,41 C22.5522847,41 23,40.5522847 23,40 L23,36 C23,35.4477153 22.5522847,35 22,35 L18,35 C17.4477153,35 17,35.4477153 17,36 L17,40 C17,40.5522847 17.4477153,41 18,41 Z M19,37 L21,37 L21,39 L19,39 L19,37 Z" id="Shape" fill="#232328"></path><path d="M15,35 L11,35 C10.4477153,35 10,35.4477153 10,36 L10,40 C10,40.5522847 10.4477153,41 11,41 L15,41 C15.5522847,41 16,40.5522847 16,40 L16,36 C16,35.4477153 15.5522847,35 15,35 Z M14,39 L12,39 L12,37 L14,37 L14,39 Z" id="Shape" fill="#232328"></path><path d="M8,35 L4,35 C3.44771525,35 3,35.4477153 3,36 L3,40 C3,40.5522847 3.44771525,41 4,41 L8,41 C8.55228475,41 9,40.5522847 9,40 L9,36 C9,35.4477153 8.55228475,35 8,35 Z M7,39 L5,39 L5,37 L7,37 L7,39 Z" id="Shape" fill="#232328"></path></g></g></g></g></g></g></g></svg>