<svg xmlns="http://www.w3.org/2000/svg" xmlns:xlink="http://www.w3.org/1999/xlink" width="72px" height="76px" viewBox="0 0 72 76"><title>Icon</title><g id="Page-1" stroke="none" stroke-width="1" fill="none" fill-rule="evenodd"><g id="01.-Home-xsaap-product" transform="translate(-1065.000000, -3771.000000)"><g id="Services" transform="translate(-1.000000, 3252.000000)"><g id="Cards" transform="translate(979.000000, 150.000000)"><g id="3" transform="translate(0.000000, 340.000000)"><g id="Icon" transform="translate(87.000000, 29.000000)"><path d="M35.6206507,62.993172 C51.9796844,62.993172 66,49.6836484 66,31.5850094 C66,13.4863704 51.9796844,13 35.6206507,13 C19.261617,13 6,27.6720884 6,45.7707274 C6,63.8693664 19.261617,62.993172 35.6206507,62.993172 Z" id="Oval" fill="#FF3D00" transform="translate(36.000000, 38.000000) rotate(-114.000000) translate(-36.000000, -38.000000) "></path><g id="Artboard-10" transform="translate(7.000000, 1.000000)" fill-rule="nonzero"><polygon id="Path" fill="#4294FF" points="4 63 4 59 12 59 10 63"></polygon><polygon id="Path" fill="#4294FF" points="54 63 52 59 60 59 60 63"></polygon><rect id="Rectangle" fill="#376CFB" x="28" y="35" width="8" height="10"></rect><rect id="Rectangle" fill="#E6ECFF" x="1" y="45" width="62" height="14" rx="3"></rect><rect id="Rectangle" fill="#E6ECFF" x="7" y="1" width="50" height="34"></rect><circle id="Oval" fill="#4294FF" cx="38" cy="52" r="10"></circle><circle id="Oval" fill="#376CFB" cx="38" cy="52" r="7"></circle><rect id="Rectangle" fill="#4294FF" x="5" y="49" width="5" height="3"></rect><circle id="Oval" fill="#4294FF" cx="20" cy="14" r="8"></circle><path d="M23.5146,13.1426 L18.5146,10.1426 C18.2056778,9.95719562 17.8209037,9.95230322 17.5073673,10.129793 C17.1938309,10.3072828 17,10.6397117 17,11 L17,17 C17,17.3602883 17.1938309,17.6927172 17.5073673,17.870207 C17.8209037,18.0476968 18.2056778,18.0428044 18.5146,17.8574 L23.5146,14.8574 C23.8157176,14.6766555 23.9999494,14.3511985 23.9999494,14 C23.9999494,13.6488015 23.8157176,13.3233445 23.5146,13.1426 L23.5146,13.1426 Z" id="Path" fill="#376CFB"></path><polygon id="Path" fill="#376CFB" points="18 11 23 14 18 17"></polygon><path d="M38,44 C33.581722,44 30,47.581722 30,52 C30,56.418278 33.581722,60 38,60 C42.418278,60 46,56.418278 46,52 C45.9949301,47.5838237 42.4161763,44.0050699 38,44 Z M38,58 C34.6862915,58 32,55.3137085 32,52 C32,48.6862915 34.6862915,46 38,46 C41.3137085,46 44,48.6862915 44,52 C43.9963626,55.3122007 41.3122007,57.9963626 38,58 L38,58 Z" id="Shape" fill="#232328"></path><path d="M38,47 C35.239924,47.0032511 33.0032511,49.239924 33,52 C33,52.5522847 33.4477153,53 34,53 C34.5522847,53 35,52.5522847 35,52 C35.0018187,50.3438997 36.3438997,49.0018187 38,49 C38.5522847,49 39,48.5522847 39,48 C39,47.4477153 38.5522847,47 38,47 Z" id="Path" fill="#232328"></path><path d="M38,41 C31.9248678,41 27,45.9248678 27,52 C27,58.0751322 31.9248678,63 38,63 C44.0751322,63 49,58.0751322 49,52 C48.9931114,45.9277234 44.0722766,41.0068886 38,41 L38,41 Z M38,61 C33.0294373,61 29,56.9705627 29,52 C29,47.0294373 33.0294373,43 38,43 C42.9705627,43 47,47.0294373 47,52 C46.9944889,56.9682782 42.9682782,60.9944889 38,61 L38,61 Z" id="Shape" fill="#232328"></path><path d="M60,44 L50.12,44 C49.5677153,44 49.12,44.4477153 49.12,45 C49.12,45.5522847 49.5677153,46 50.12,46 L60,46 C61.1040441,46.0012675 61.9987325,46.8959559 62,48 L62,56 C61.9987325,57.1040441 61.1040441,57.9987325 60,58 L50.12,58 C49.5677153,58 49.12,58.4477153 49.12,59 C49.12,59.5522847 49.5677153,60 50.12,60 L51.3817,60 L53.1054,63.4473 C53.274844,63.7861061 53.6211849,64 54,64 L60,64 C60.5522847,64 61,63.5522847 61,63 L61,59.858 C62.7615001,59.4046476 63.9945887,57.8188957 64,56 L64,48 C63.9976851,45.7918206 62.2081794,44.0023149 60,44 L60,44 Z M59,62 L54.6182,62 L53.6182,60 L59,60 L59,62 Z" id="Shape" fill="#232328"></path><path d="M26.88,45 C26.88,44.4477153 26.4322847,44 25.88,44 L4,44 C1.79182059,44.0023149 0.00231494425,45.7918206 0,48 L0,56 C0.00541131635,57.8188957 1.2384999,59.4046476 3,59.858 L3,63 C3,63.5522847 3.44771525,64 4,64 L10,64 C10.378779,64 10.7250721,63.7860739 10.8945,63.4473 L12.6182,60 L25.88,60 C26.4322847,60 26.88,59.5522847 26.88,59 C26.88,58.4477153 26.4322847,58 25.88,58 L4,58 C2.89595593,57.9987325 2.00126747,57.1040441 2,56 L2,48 C2.00126747,46.8959559 2.89595593,46.0012675 4,46 L25.88,46 C26.4322847,46 26.88,45.5522847 26.88,45 Z M10.3818,60 L9.3818,62 L5,62 L5,60 L10.3818,60 Z" id="Shape" fill="#232328"></path><path d="M5,48 C4.44771525,48 4,48.4477153 4,49 L4,52 C4,52.5522847 4.44771525,53 5,53 L10,53 C10.5522847,53 11,52.5522847 11,52 L11,49 C11,48.4477153 10.5522847,48 10,48 L5,48 Z M9,51 L6,51 L6,50 L9,50 L9,51 Z" id="Shape" fill="#232328"></path><path d="M22,49 C22,48.4477153 21.5522847,48 21,48 L13,48 C12.4477153,48 12,48.4477153 12,49 C12,49.5522847 12.4477153,50 13,50 L21,50 C21.5522847,50 22,49.5522847 22,49 Z" id="Path" fill="#232328"></path><path d="M13,51 C12.4477153,51 12,51.4477153 12,52 C12,52.5522847 12.4477153,53 13,53 L17,53 C17.5522847,53 18,52.5522847 18,52 C18,51.4477153 17.5522847,51 17,51 L13,51 Z" id="Path" fill="#232328"></path><path d="M4,34 C3.44771525,34 3,34.4477153 3,35 C3,35.5522847 3.44771525,36 4,36 L27,36 L27,42.21 C27,42.7622847 27.4477153,43.21 28,43.21 C28.5522847,43.21 29,42.7622847 29,42.21 L29,36 L35,36 L35,38.14 C35,38.6922847 35.4477153,39.14 36,39.14 C36.5522847,39.14 37,38.6922847 37,38.14 L37,36 L60,36 C60.5522847,36 61,35.5522847 61,35 C61,34.4477153 60.5522847,34 60,34 L58,34 L58,2 L60,2 C60.5522847,2 61,1.55228475 61,1 C61,0.44771525 60.5522847,0 60,0 L4,0 C3.44771525,0 3,0.44771525 3,1 C3,1.55228475 3.44771525,2 4,2 L6,2 L6,34 L4,34 Z M8,2 L56,2 L56,34 L8,34 L8,2 Z" id="Shape" fill="#232328"></path><path d="M20,23 C24.9705627,23 29,18.9705627 29,14 C29,9.02943725 24.9705627,5 20,5 C15.0294373,5 11,9.02943725 11,14 C11.0055111,18.9682782 15.0317218,22.9944889 20,23 Z M20,7 C23.8659932,7 27,10.1340068 27,14 C27,17.8659932 23.8659932,21 20,21 C16.1340068,21 13,17.8659932 13,14 C13.0044636,10.1358572 16.1358572,7.00446362 20,7 Z" id="Shape" fill="#232328"></path><path d="M17.5068,17.87 C17.8204999,18.0475959 18.2054751,18.0427446 18.5146,17.8573 L23.5146,14.8573 C23.8157176,14.6765555 23.9999494,14.3510985 23.9999494,13.9999 C23.9999494,13.6487015 23.8157176,13.3232445 23.5146,13.1425 L18.5146,10.1425 C18.2056625,9.95708642 17.8208668,9.95220336 17.5073238,10.1297177 C17.1937807,10.307232 16.9999998,10.6396938 16.9999998,11 L16.9999998,17 C16.9997807,17.3601471 17.1934091,17.6925399 17.5068,17.87 L17.5068,17.87 Z M19,12.7661 L21.0566,14 L19,15.2339 L19,12.7661 Z" id="Shape" fill="#232328"></path><path d="M32,7 L52,7 C52.5522847,7 53,6.55228475 53,6 C53,5.44771525 52.5522847,5 52,5 L32,5 C31.4477153,5 31,5.44771525 31,6 C31,6.55228475 31.4477153,7 32,7 Z" id="Path" fill="#232328"></path><path d="M32,11 L47,11 C47.5522847,11 48,10.5522847 48,10 C48,9.44771525 47.5522847,9 47,9 L32,9 C31.4477153,9 31,9.44771525 31,10 C31,10.5522847 31.4477153,11 32,11 Z" id="Path" fill="#232328"></path><path d="M32,15 L47,15 C47.5522847,15 48,14.5522847 48,14 C48,13.4477153 47.5522847,13 47,13 L32,13 C31.4477153,13 31,13.4477153 31,14 C31,14.5522847 31.4477153,15 32,15 Z" id="Path" fill="#232328"></path><path d="M32,19 L47,19 C47.5522847,19 48,18.5522847 48,18 C48,17.4477153 47.5522847,17 47,17 L32,17 C31.4477153,17 31,17.4477153 31,18 C31,18.5522847 31.4477153,19 32,19 Z" id="Path" fill="#232328"></path><path d="M32,23 L47,23 C47.5522847,23 48,22.5522847 48,22 C48,21.4477153 47.5522847,21 47,21 L32,21 C31.4477153,21 31,21.4477153 31,22 C31,22.5522847 31.4477153,23 32,23 Z" id="Path" fill="#232328"></path><path d="M52,9 L50,9 C49.4477153,9 49,9.44771525 49,10 C49,10.5522847 49.4477153,11 50,11 L52,11 C52.5522847,11 53,10.5522847 53,10 C53,9.44771525 52.5522847,9 52,9 Z" id="Path" fill="#232328"></path><path d="M52,13 L50,13 C49.4477153,13 49,13.4477153 49,14 C49,14.5522847 49.4477153,15 50,15 L52,15 C52.5522847,15 53,14.5522847 53,14 C53,13.4477153 52.5522847,13 52,13 Z" id="Path" fill="#232328"></path><path d="M52,17 L50,17 C49.4477153,17 49,17.4477153 49,18 C49,18.5522847 49.4477153,19 50,19 L52,19 C52.5522847,19 53,18.5522847 53,18 C53,17.4477153 52.5522847,17 52,17 Z" id="Path" fill="#232328"></path><path d="M52,21 L50,21 C49.4477153,21 49,21.4477153 49,22 C49,22.5522847 49.4477153,23 50,23 L52,23 C52.5522847,23 53,22.5522847 53,22 C53,21.4477153 52.5522847,21 52,21 Z" id="Path" fill="#232328"></path><path d="M12,27 L52,27 C52.5522847,27 53,26.5522847 53,26 C53,25.4477153 52.5522847,25 52,25 L12,25 C11.4477153,25 11,25.4477153 11,26 C11,26.5522847 11.4477153,27 12,27 Z" id="Path" fill="#232328"></path><path d="M53,30 C53,29.4477153 52.5522847,29 52,29 L12,29 C11.4477153,29 11,29.4477153 11,30 C11,30.5522847 11.4477153,31 12,31 L52,31 C52.5522847,31 53,30.5522847 53,30 Z" id="Path" fill="#232328"></path></g></g></g></g></g></g></g></svg>