<svg xmlns="http://www.w3.org/2000/svg" xmlns:xlink="http://www.w3.org/1999/xlink" width="142px" height="104px" viewBox="0 0 142 104"><title>icon</title><g id="Page-1" stroke="none" stroke-width="1" fill="none" fill-rule="evenodd"><g id="01.-Home-xsaap-product" transform="translate(-494.000000, -1065.000000)"><g id="Feautures" transform="translate(-1.000000, 860.000000)"><g id="content" transform="translate(407.000000, 205.000000)"><g id="icon" transform="translate(88.000000, 0.000000)"><path d="M70.1022067,103.985798 C108.818586,103.985798 142,76.3019888 142,38.6568196 C142,1.01165053 108.818586,0 70.1022067,0 C31.385827,0 0,30.5179439 0,68.163113 C0,105.808282 31.385827,103.985798 70.1022067,103.985798 Z" id="Oval" fill="#FF882E"></path><path d="M69.843492,104 C108.395378,104 114.949499,93.4281812 129.862781,70.5900036 C144.776063,47.751826 132.410105,17.0224554 93.8582191,17.0224554 C55.3063329,17.0224554 14,4.39359577 14,42.2514778 C14,80.1093598 31.2916057,104 69.843492,104 Z" id="Oval" fill="#F9FAFF"></path><g id="Artboard-21" transform="translate(39.000000, 28.000000)" fill-rule="nonzero"><rect id="Rectangle" fill="#E6ECFF" x="1" y="1" width="50" height="62" rx="4"></rect><rect id="Rectangle" fill="#D0DBF7" x="5" y="7" width="42" height="46"></rect><circle id="Oval" fill="#4294FF" cx="26" cy="58" r="2"></circle><path d="M30,39 L58.1714,10.8281 C59.2759695,9.7235305 61.0668305,9.7235305 62.1714,10.8281 C63.2759695,11.9326695 63.2759695,13.7235305 62.1714,14.8281 L34,43 L29,44 L30,39 Z" id="Path" fill="#4294FF"></path><path d="M51,30.66 C50.4477153,30.66 50,31.1077153 50,31.66 L50,59 C49.9981813,60.6561003 48.6561003,61.9981813 47,62 L5,62 C3.34389967,61.9981813 2.00181871,60.6561003 2,59 L2,5 C2.00181871,3.34389967 3.34389967,2.00181871 5,2 L47,2 C48.6561003,2.00181871 49.9981813,3.34389967 50,5 L50,12.34 C50,12.8922847 50.4477153,13.34 51,13.34 C51.5522847,13.34 52,12.8922847 52,12.34 L52,5 C51.9967489,2.23992404 49.760076,0.00325113851 47,0 L5,0 C2.23992404,0.00325113851 0.00325113851,2.23992404 0,5 L0,59 C0.00325113851,61.760076 2.23992404,63.9967489 5,64 L47,64 C49.760076,63.9967489 51.9967489,61.760076 52,59 L52,31.66 C52,31.1077153 51.5522847,30.66 51,30.66 Z" id="Path" fill="#232328"></path><path d="M47,17.34 C47.5522847,17.34 48,16.8922847 48,16.34 L48,7 C48,6.44771525 47.5522847,6 47,6 L5,6 C4.44771525,6 4,6.44771525 4,7 L4,53 C4,53.5522847 4.44771525,54 5,54 L47,54 C47.5522847,54 48,53.5522847 48,53 L48,35.65 C48,35.0977153 47.5522847,34.65 47,34.65 C46.4477153,34.65 46,35.0977153 46,35.65 L46,52 L6,52 L6,8 L46,8 L46,16.34 C46,16.8922847 46.4477153,17.34 47,17.34 Z" id="Path" fill="#232328"></path><path d="M28,5 C28.5522847,5 29,4.55228475 29,4 C29,3.44771525 28.5522847,3 28,3 L24,3 C23.4477153,3 23,3.44771525 23,4 C23,4.55228475 23.4477153,5 24,5 L28,5 Z" id="Path" fill="#232328"></path><path d="M23,58 C23,59.6568542 24.3431458,61 26,61 C27.6568542,61 29,59.6568542 29,58 C29,56.3431458 27.6568542,55 26,55 C24.3438997,55.0018187 23.0018187,56.3438997 23,58 L23,58 Z M27,58 C27,58.5522847 26.5522847,59 26,59 C25.4477153,59 25,58.5522847 25,58 C25,57.4477153 25.4477153,57 26,57 C26.5520791,57.0004962 26.9995038,57.4479209 27,58 Z" id="Shape" fill="#232328"></path><path d="M62.8784,10.1211 C61.3821968,8.62888858 58.9606032,8.62888858 57.4644,10.1211 L29.293,38.293 C29.1533769,38.4324715 29.0582054,38.6101831 29.0195,38.8037 L28.0195,43.8037 C27.9606849,44.0974889 28.0367005,44.40217 28.2266284,44.6338994 C28.4165563,44.8656289 28.7003817,45 29,45 C29.065923,44.9996387 29.1316587,44.9929412 29.1963,44.98 L34.1963,43.98 C34.3897415,43.9410846 34.5673955,43.8459439 34.707,43.7065 L62.8784,15.5352 C63.5965373,14.8173429 64.0000063,13.8435515 64.0000063,12.82815 C64.0000063,11.8127485 63.5965373,10.8389571 62.8784,10.1211 Z M61.4644,14.1211 L33.5068,42.0791 L30.2749,42.7256 L30.9214,39.4932 L58.8784,11.5352 C59.3403265,11.0732556 60.0136087,10.8928362 60.6446276,11.0619041 C61.2756465,11.230972 61.7685353,11.7238418 61.9376276,12.3548541 C62.1067199,12.9858665 61.9263266,13.6591556 61.4644,14.1211 Z" id="Shape" fill="#232328"></path></g></g></g></g></g></g></svg>