<svg xmlns="http://www.w3.org/2000/svg" xmlns:xlink="http://www.w3.org/1999/xlink" width="72px" height="76px" viewBox="0 0 72 76"><title>Icon</title><g id="Symbols" stroke="none" stroke-width="1" fill="none" fill-rule="evenodd"><g id="Card-Style-2" transform="translate(-93.000000, -27.000000)"><g id="Icon" transform="translate(93.000000, 27.000000)"><path d="M35.6206507,62.993172 C51.9796844,62.993172 66,49.6836484 66,31.5850094 C66,13.4863704 51.9796844,13 35.6206507,13 C19.261617,13 6,27.6720884 6,45.7707274 C6,63.8693664 19.261617,62.993172 35.6206507,62.993172 Z" id="Oval" fill-opacity="0.66" fill="#FF882E" transform="translate(36.000000, 38.000000) rotate(-114.000000) translate(-36.000000, -38.000000) "></path><g id="Artboard-13" transform="translate(6.000000, 5.000000)" fill-rule="nonzero"><rect id="Rectangle" fill="#4294FF" x="39" y="8" width="5" height="5"></rect><rect id="Rectangle" fill="#4294FF" x="16" y="8" width="5" height="5"></rect><rect id="Rectangle" fill="#D0DBF7" x="21" y="1" width="18" height="12"></rect><rect id="Rectangle" fill="#E6ECFF" x="12" y="13" width="36" height="16"></rect><polygon id="Path" fill="#376CFB" points="9.71 45 12.572 35 47.428 35 50.29 45"></polygon><polygon id="Path" fill="#2946ED" points="2.429 53 7.571 35 12.571 35 7.429 53"></polygon><polygon id="Path" fill="#2946ED" points="52.571 53 47.428 35 52.429 35 57.571 53"></polygon><rect id="Rectangle" fill="#4294FF" x="1" y="29" width="58" height="6"></rect><rect id="Rectangle" fill="#D0DBF7" x="21" y="21" width="18" height="20"></rect><path d="M59,28 L49,28 L49,13 C49,12.4477153 48.5522847,12 48,12 L45,12 L45,8 C45,7.44771525 44.5522847,7 44,7 L40,7 L40,1 C40,0.44771525 39.5522847,3.55271368e-15 39,3.55271368e-15 L21,3.55271368e-15 C20.4477153,3.55271368e-15 20,0.44771525 20,1 L20,7 L16,7 C15.4477153,7 15,7.44771525 15,8 L15,12 L12,12 C11.4477153,12 11,12.4477153 11,13 L11,28 L1,28 C0.44771525,28 0,28.4477153 0,29 L0,35 C0,35.5522847 0.44771525,36 1,36 L6.2456,36 L1.4673,52.7251 C1.32127585,53.253999 1.62869444,53.8017795 2.15622439,53.9526747 C2.68375433,54.10357 3.23434639,53.801216 3.3901,53.2751 L8.3257,36 L11.2457,36 C11.2438,36.0065 6.7585,51.706 6.4674,52.7251 C6.32137585,53.253999 6.62879444,53.8017795 7.15632439,53.9526747 C7.68385433,54.10357 8.23444639,53.801216 8.3902,53.2751 L10.4686,46 L49.5306,46 L51.6094,53.2749 C51.7612783,53.8061427 52.3150573,54.1136783 52.8463,53.9618 C53.3775427,53.8099217 53.6850783,53.2561427 53.5332,52.7249 L48.7539,36 L51.6748,36 L56.6094,53.2749 C56.707648,53.6185538 56.9817701,53.8836882 57.328507,53.9704298 C57.6752439,54.0571714 58.0419181,53.952342 58.290407,53.6954298 C58.5388959,53.4385177 58.631448,53.0685538 58.5332,52.7249 L53.7549,36 L59,36 C59.5522847,36 60,35.5522847 60,35 L60,29 C60,28.4477153 59.5522847,28 59,28 Z M43,9 L43,12 L40,12 L40,9 L43,9 Z M22,2 L38,2 L38,12 L22,12 L22,2 Z M17,9 L20,9 L20,12 L17,12 L17,9 Z M58,34 L42,34 C41.4477153,34 41,34.4477153 41,35 C41,35.5522847 41.4477153,36 42,36 L46.673,36 L48.959,44 L11.04,44 L13.3256,36 L18,36 C18.5522847,36 19,35.5522847 19,35 C19,34.4477153 18.5522847,34 18,34 L2,34 L2,30 L18,30 C18.5522847,30 19,29.5522847 19,29 C19,28.4477153 18.5522847,28 18,28 L13,28 L13,14 L47,14 L47,28 L42,28 C41.4477153,28 41,28.4477153 41,29 C41,29.5522847 41.4477153,30 42,30 L58,30 L58,34 Z" id="Shape" fill="#232328"></path><path d="M43,21 C43,20.4477153 42.5522847,20 42,20 L18,20 C17.4477153,20 17,20.4477153 17,21 C17,21.5522847 17.4477153,22 18,22 L20,22 L20,41 C20,41.5522847 20.4477153,42 21,42 L39,42 C39.5522847,42 40,41.5522847 40,41 L40,22 L42,22 C42.5522847,22 43,21.5522847 43,21 Z M38,40 L22,40 L22,22 L38,22 L38,40 Z" id="Shape" fill="#232328"></path><path d="M40,18 L42,18 C42.5522847,18 43,17.5522847 43,17 C43,16.4477153 42.5522847,16 42,16 L40,16 C39.4477153,16 39,16.4477153 39,17 C39,17.5522847 39.4477153,18 40,18 Z" id="Path" fill="#232328"></path><path d="M25,26 L35,26 C35.5522847,26 36,25.5522847 36,25 C36,24.4477153 35.5522847,24 35,24 L25,24 C24.4477153,24 24,24.4477153 24,25 C24,25.5522847 24.4477153,26 25,26 Z" id="Path" fill="#232328"></path><path d="M25,30 L35,30 C35.5522847,30 36,29.5522847 36,29 C36,28.4477153 35.5522847,28 35,28 L25,28 C24.4477153,28 24,28.4477153 24,29 C24,29.5522847 24.4477153,30 25,30 Z" id="Path" fill="#232328"></path><path d="M25,34 L35,34 C35.5522847,34 36,33.5522847 36,33 C36,32.4477153 35.5522847,32 35,32 L25,32 C24.4477153,32 24,32.4477153 24,33 C24,33.5522847 24.4477153,34 25,34 Z" id="Path" fill="#232328"></path><path d="M25,38 L35,38 C35.5522847,38 36,37.5522847 36,37 C36,36.4477153 35.5522847,36 35,36 L25,36 C24.4477153,36 24,36.4477153 24,37 C24,37.5522847 24.4477153,38 25,38 Z" id="Path" fill="#232328"></path></g></g></g></g></svg>