<svg xmlns="http://www.w3.org/2000/svg" xmlns:xlink="http://www.w3.org/1999/xlink" width="72px" height="76px" viewBox="0 0 72 76"><title>Icon</title><g id="Page-1" stroke="none" stroke-width="1" fill="none" fill-rule="evenodd"><g id="01.-Home-xsaap-product" transform="translate(-1351.000000, -3479.000000)"><g id="Services" transform="translate(-1.000000, 3252.000000)"><g id="Cards" transform="translate(979.000000, 150.000000)"><g id="2" transform="translate(280.000000, 50.000000)"><g id="Icon" transform="translate(93.000000, 27.000000)"><path d="M35.6206507,62.993172 C51.9796844,62.993172 66,49.6836484 66,31.5850094 C66,13.4863704 51.9796844,13 35.6206507,13 C19.261617,13 6,27.6720884 6,45.7707274 C6,63.8693664 19.261617,62.993172 35.6206507,62.993172 Z" id="Oval" fill="#91E2F9" transform="translate(36.000000, 38.000000) rotate(-114.000000) translate(-36.000000, -38.000000) "></path><g id="Artboard-40" transform="translate(15.000000, 1.000000)" fill-rule="nonzero"><rect id="Rectangle" fill="#E6ECFF" x="1" y="1" width="36" height="62" rx="3"></rect><polygon id="Path" fill="#4294FF" points="4 60 4 4 11 4 12 7 26 7 27 4 34 4 34 60"></polygon><path d="M34,0 L4,0 C1.79175213,0.00214989898 0.00214989898,1.79175213 -3.55271368e-15,4 L-3.55271368e-15,60 C0.00214989898,62.2082479 1.79175213,63.9978501 4,64 L34,64 C36.2082479,63.9978501 37.9978501,62.2082479 38,60 L38,4 C37.9978501,1.79175213 36.2082479,0.00214989898 34,0 Z M36,60 C35.9985127,61.1039528 35.1039528,61.9985127 34,62 L4,62 C2.89604716,61.9985127 2.00148733,61.1039528 2,60 L2,4 C2.00148733,2.89604716 2.89604716,2.00148733 4,2 L34,2 C35.1039528,2.00148733 35.9985127,2.89604716 36,4 L36,60 Z" id="Shape" fill="#232328"></path><path d="M34,2.9999999 L27,2.9999999 C26.5696729,2.9999999 26.187602,3.27526282 26.0518,3.6836 L25.2793,5.9999999 L12.7207,5.9999999 L11.9482,3.6836 C11.812398,3.27526282 11.4303271,2.9999999 11,2.9999999 L4,2.9999999 C3.44771525,2.9999999 3,3.44771525 3,3.9999999 L3,59.9999999 C3,60.5522847 3.44771525,60.9999999 4,60.9999999 L34,60.9999999 C34.5522847,60.9999999 35,60.5522847 35,59.9999999 L35,3.9999999 C35,3.44771525 34.5522847,2.9999999 34,2.9999999 Z M33,59 L5,59 L5,5 L10.2793,5 L11.0518,7.3164 C11.187602,7.72473718 11.5696729,8.00018924 12,8 L26,8 C26.4303271,8.00018924 26.812398,7.72473718 26.9482,7.3164 L27.7207,5 L33,5 L33,59 Z" id="Shape" fill="#232328"></path><path d="M14,5 L20,5 C20.5522847,5 21,4.55228475 21,4 C21,3.44771525 20.5522847,3 20,3 L14,3 C13.4477153,3 13,3.44771525 13,4 C13,4.55228475 13.4477153,5 14,5 Z" id="Path" fill="#232328"></path><path d="M23,5 L24,5 C24.5522847,5 25,4.55228475 25,4 C25,3.44771525 24.5522847,3 24,3 L23,3 C22.4477153,3 22,3.44771525 22,4 C22,4.55228475 22.4477153,5 23,5 Z" id="Path" fill="#232328"></path></g></g></g></g></g></g></g></svg>