<svg xmlns="http://www.w3.org/2000/svg" xmlns:xlink="http://www.w3.org/1999/xlink" width="146px" height="109px" viewBox="0 0 146 109"><title>icon</title><g id="Page-1" stroke="none" stroke-width="1" fill="none" fill-rule="evenodd"><g id="01.-Home-xsaap-product" transform="translate(-1283.000000, -1071.000000)"><g id="Feautures" transform="translate(-1.000000, 860.000000)"><g id="content" transform="translate(407.000000, 205.000000)"><g id="3" transform="translate(791.000000, 6.000000)"><g id="icon" transform="translate(86.000000, 0.000000)"><path d="M71.5832392,103.985798 C111.117571,103.985798 145,76.3019888 145,38.6568196 C145,1.01165053 111.117571,0 71.5832392,0 C32.0489079,0 0,30.5179439 0,68.163113 C0,105.808282 32.0489079,103.985798 71.5832392,103.985798 Z" id="Oval" fill="#FF3D00"></path><path d="M73.3362945,109 C115.68017,109 122.878958,97.5966898 139.25912,72.9622511 C155.639282,48.3278123 142.057001,15.1815249 99.7131259,15.1815249 C57.3692508,15.1815249 12,1.5593842 12,42.3948524 C12,83.2303206 30.9924194,109 73.3362945,109 Z" id="Oval" fill="#F9FAFF"></path><g id="Artboard-4" transform="translate(40.000000, 17.000000)" fill-rule="nonzero"><rect id="Rectangle" fill="#376CFB" x="28" y="42" width="8" height="5"></rect><polygon id="Path" fill="#4294FF" points="6 46.055 22 32.901 22 38.08 10 47.945 10 60 6 63"></polygon><polygon id="Path" fill="#4294FF" points="54 60 54 47.945 42 38.08 42 32.901 58.001 46.055 58 63 58 63"></polygon><path d="M7,13 L7,3 C7,1.8954305 7.8954305,1 9,1 C10.1045695,1 11,1.8954305 11,3 L11,13 L7,13 Z" id="Path" fill="#E6ECFF"></path><path d="M53,13 L53,3 C53,1.8954305 53.8954305,1 55,1 C56.1045695,1 57,1.8954305 57,3 L57,13 L53,13 Z" id="Path" fill="#E6ECFF"></path><path d="M25,42 C23.3438997,41.9981813 22.0018187,40.6561003 22,39 L22,32 C21.9976851,29.7918206 20.2081794,28.0023149 18,28 L14,28 L14,17 L50,17 L50,28 L46,28 C43.7918206,28.0023149 42.0023149,29.7918206 42,32 L42,39 C41.9981813,40.6561003 40.6561003,41.9981813 39,42 L25,42 Z" id="Path" fill="#E6ECFF"></path><rect id="Rectangle" fill="#E6ECFF" x="19" y="47" width="26" height="16" rx="3"></rect><circle id="Oval" fill="#4294FF" cx="32" cy="55" r="4"></circle><rect id="Rectangle" fill="#376CFB" x="14" y="17" width="36" height="4"></rect><path d="M9,33 C6.23992404,32.9967489 4.00325114,30.760076 4,28 L4,13 L14,13 L14,28 C13.9967489,30.760076 11.760076,32.9967489 9,33 Z" id="Path" fill="#4294FF"></path><path d="M55,33 C52.239924,32.9967489 50.0032511,30.760076 50,28 L50,13 L60,13 L60,28 C59.9967489,30.760076 57.760076,32.9967489 55,33 L55,33 Z" id="Path" fill="#4294FF"></path><path d="M63,4 L58,4 L58,3 C58,1.34314575 56.6568542,0 55,0 C53.3431458,0 52,1.34314575 52,3 L52,4 L47,4 C46.4477153,4 46,4.44771525 46,5 C46,5.55228475 46.4477153,6 47,6 L52,6 L52,12 L50,12 C49.4477153,12 49,12.4477153 49,13 L49,16 L15,16 L15,13 C15,12.4477153 14.5522847,12 14,12 L12,12 L12,6 L17,6 C17.5522847,6 18,5.55228475 18,5 C18,4.44771525 17.5522847,4 17,4 L12,4 L12,3 C12,1.34314575 10.6568542,0 9,0 C7.34314575,0 6,1.34314575 6,3 L6,4 L1,4 C0.44771525,4 0,4.44771525 0,5 C0,5.55228475 0.44771525,6 1,6 L6,6 L6,12 L4,12 C3.44771525,12 3,12.4477153 3,13 L3,28 C2.99699936,31.1194852 5.38622963,33.7202389 8.49477816,33.9812421 C11.6033267,34.2422453 14.3927827,32.07631 14.91,29 L18,29 C19.6561003,29.0018187 20.9981813,30.3438997 21,32 L21,32.4286 L5.3643,45.2827 C5.13366175,45.4729258 5.00005699,45.7562354 5,46.0552 L5,63 C5,63.3787721 5.21400238,63.7250352 5.5527864,63.8944272 C5.89157043,64.0638192 6.29698235,64.0272632 6.6,63.8 L10.6,60.8 C10.8519675,60.6112806 11.0002049,60.3148056 11,60 L11,48.4175 L21.1617,40.0632 C21.6363735,41.7930624 23.2062037,42.9941872 25,43 L27,43 L27,46 L22,46 C19.7918206,46.0023149 18.0023149,47.7918206 18,50 L18,60 C18.0023149,62.2081794 19.7918206,63.9976851 22,64 L42,64 C44.2081794,63.9976851 45.9976851,62.2081794 46,60 L46,50 C45.9976851,47.7918206 44.2081794,46.0023149 42,46 L37,46 L37,43 L39,43 C40.7937963,42.9941872 42.3636265,41.7930624 42.8383,40.0632 L53,48.4175 L53,60 C52.9997951,60.3148056 53.1480325,60.6112806 53.4,60.8 L57.4,63.8 C57.7030176,64.0272632 58.1084296,64.0638192 58.4472136,63.8944272 C58.7859976,63.7250352 59,63.3787721 59,63 L59,46.0552 C58.999943,45.7562354 58.8663382,45.4729258 58.6357,45.2827 L43,32.4286 L43,32 C43.0018187,30.3438997 44.3438997,29.0018187 46,29 L49.09,29 C49.6072173,32.07631 52.3966733,34.2422453 55.5052218,33.9812421 C58.6137704,33.7202389 61.0030006,31.1194852 61,28 L61,13 C61,12.4477153 60.5522847,12 60,12 L58,12 L58,6 L63,6 C63.5522847,6 64,5.55228475 64,5 C64,4.44771525 63.5522847,4 63,4 Z M54,3 C54,2.44771525 54.4477153,2 55,2 C55.5522847,2 56,2.44771525 56,3 L56,4 L54,4 L54,3 Z M49,18 L49,20 L15,20 L15,18 L49,18 Z M8,3 C8,2.44771525 8.44771525,2 9,2 C9.55228475,2 10,2.44771525 10,3 L10,4 L8,4 L8,3 Z M8,6 L10,6 L10,12 L8,12 L8,6 Z M9,32 C6.79182059,31.9976851 5.00231494,30.2081794 5,28 L5,14 L13,14 L13,28 C12.9976851,30.2081794 11.2081794,31.9976851 9,32 Z M9.3652,47.1724 C9.13390993,47.3621621 8.99988453,47.6456266 9,47.9448 L9,59.5 L7,61 L7,46.5273 L21,35.0173 L21,37.6066 L9.3652,47.1724 Z M44,50 L44,60 C43.9987325,61.1040441 43.1040441,61.9987325 42,62 L22,62 C20.8959559,61.9987325 20.0012675,61.1040441 20,60 L20,50 C20.0012675,48.8959559 20.8959559,48.0012675 22,48 L42,48 C43.1040441,48.0012675 43.9987325,48.8959559 44,50 L44,50 Z M35,46 L29,46 L29,43 L35,43 L35,46 Z M57,46.5273 L57,61 L55,59.5 L55,47.9448 C55.0001155,47.6456266 54.8660901,47.3621621 54.6348,47.1724 L43,37.6069 L43,35.0176 L57,46.5273 Z M41,32 L41,39 C40.9987325,40.1040441 40.1040441,40.9987325 39,41 L25,41 C23.8959559,40.9987325 23.0012675,40.1040441 23,39 L23,32 C22.9967489,29.239924 20.760076,27.0032511 18,27 L15,27 L15,22 L49,22 L49,27 L46,27 C43.239924,27.0032511 41.0032511,29.239924 41,32 Z M59,28 C59,30.209139 57.209139,32 55,32 C52.790861,32 51,30.209139 51,28 L51,14 L59,14 L59,28 Z M56,12 L54,12 L54,6 L56,6 L56,12 Z" id="Shape" fill="#232328"></path><path d="M32,50 C29.2385763,50 27,52.2385763 27,55 C27,57.7614237 29.2385763,60 32,60 C34.7614237,60 37,57.7614237 37,55 C36.9967489,52.239924 34.760076,50.0032511 32,50 Z M32,58 C30.3431458,58 29,56.6568542 29,55 C29,53.3431458 30.3431458,52 32,52 C33.6568542,52 35,53.3431458 35,55 C34.9981813,56.6561003 33.6561003,57.9981813 32,58 L32,58 Z" id="Shape" fill="#232328"></path><path d="M39,51 L41,51 C41.5522847,51 42,50.5522847 42,50 C42,49.4477153 41.5522847,49 41,49 L39,49 C38.4477153,49 38,49.4477153 38,50 C38,50.5522847 38.4477153,51 39,51 Z" id="Path" fill="#232328"></path></g></g></g></g></g></g></g></svg>