<svg xmlns="http://www.w3.org/2000/svg" xmlns:xlink="http://www.w3.org/1999/xlink" width="146px" height="104px" viewBox="0 0 146 104"><title>icon</title><g id="Page-1" stroke="none" stroke-width="1" fill="none" fill-rule="evenodd"><g id="01.-Home-xsaap-product" transform="translate(-897.000000, -1072.000000)"><g id="Feautures" transform="translate(-1.000000, 860.000000)"><g id="content" transform="translate(407.000000, 205.000000)"><g id="2" transform="translate(400.000000, 7.000000)"><g id="icon" transform="translate(91.000000, 0.000000)"><path d="M72.5832392,103.985798 C112.117571,103.985798 146,76.3019888 146,38.6568196 C146,1.01165053 112.117571,0 72.5832392,0 C33.0489079,0 1,30.5179439 1,68.163113 C1,105.808282 33.0489079,103.985798 72.5832392,103.985798 Z" id="Oval" fill="#91E2F9"></path><path d="M61.3362945,96 C103.68017,96 110.878958,84.5966898 127.25912,59.9622511 C143.639282,35.3278123 130.057001,2.18152492 87.7131259,2.18152492 C45.3692508,2.18152492 0,-11.4406158 0,29.3948524 C0,70.2303206 18.9924194,96 61.3362945,96 Z" id="Oval" fill="#F9FAFF"></path><g id="Artboard-9" transform="translate(37.000000, 18.000000)" fill-rule="nonzero"><polygon id="Path" fill="#376CFB" points="9.71 53 12 45 48 45 50.29 53"></polygon><path d="M21,39 C23.2081794,38.9976851 24.9976851,37.2081794 25,35 L25,33 L35,33 L35,35 C35.0023149,37.2081794 36.7918206,38.9976851 39,39 L21,39 Z" id="Path" fill="#376CFB"></path><path d="M8,27 L8,4 C8.00181871,2.34389967 9.34389967,1.00181871 11,1 L49,1 C50.6561003,1.00181871 51.9981813,2.34389967 52,4 L52,27 L8,27 Z" id="Path" fill="#E6ECFF"></path><polygon id="Path" fill="#2946ED" points="3 59 7 45 12 45 8 59"></polygon><polygon id="Path" fill="#2946ED" points="52 59 48 45 53 45 57 59"></polygon><path d="M11,33 C9.34389967,32.9981813 8.00181871,31.6561003 8,30 L8,27 L52,27 L52,33 L11,33 Z" id="Path" fill="#4294FF"></path><rect id="Rectangle" fill="#376CFB" x="46" y="14" width="12" height="22" rx="2"></rect><circle id="Oval" fill="#2946ED" cx="52" cy="22" r="2"></circle><rect id="Rectangle" fill="#4294FF" x="1" y="39" width="58" height="6"></rect><path d="M59,38 L39,38 C37.3438997,37.9981813 36.0018187,36.6561003 36,35 L36,34 L42,34 C42.5522847,34 43,33.5522847 43,33 C43,32.4477153 42.5522847,32 42,32 L11,32 C9.89595593,31.9987325 9.00126747,31.1040441 9,30 L9,28 L42,28 C42.5522847,28 43,27.5522847 43,27 C43,26.4477153 42.5522847,26 42,26 L9,26 L9,4 C9.00126747,2.89595593 9.89595593,2.00126747 11,2 L49,2 C50.1040441,2.00126747 50.9987325,2.89595593 51,4 L51,8 C51,8.55228475 51.4477153,9 52,9 C52.5522847,9 53,8.55228475 53,8 L53,4 C52.9976851,1.79182059 51.2081794,0.00231494425 49,3.55271368e-15 L11,3.55271368e-15 C8.79182059,0.00231494425 7.00231494,1.79182059 7,4 L7,30 C7.00231494,32.2081794 8.79182059,33.9976851 11,34 L24,34 L24,35 C23.9981813,36.6561003 22.6561003,37.9981813 21,38 L1,38 C0.44771525,38 0,38.4477153 0,39 L0,45 C0,45.5522847 0.44771525,46 1,46 L5.6738,46 L2.0381,58.7251 C1.88622171,59.2563427 2.19375731,59.8101217 2.72500001,59.962 C3.2562427,60.1138783 3.81002168,59.8063427 3.9619,59.2751 L7.7539,46 L10.6739,46 L7.0381,58.7251 C6.93985195,59.0687538 7.03240412,59.4387177 7.280893,59.6956299 C7.52938188,59.952542 7.8960561,60.0573714 8.24279301,59.9706299 C8.58952993,59.8838883 8.86365197,59.6187538 8.9619,59.2751 L10.4691,54 L49.5309,54 L51.0381,59.2749 C51.1899783,59.8061427 51.7437573,60.1136783 52.275,59.9618 C52.8062427,59.8099217 53.1137783,59.2561427 52.9619,58.7249 L49.3262,46 L52.2462,46 L56.0382,59.2749 C56.1611715,59.7037661 56.5529528,59.9996101 56.9991,60.0007958 C57.3128951,59.9999139 57.6083167,59.8524452 57.7973912,59.6020084 C57.9864657,59.3515716 58.047382,59.0270564 57.962,58.7251 L54.3262,46 L59,46 C59.5522847,46 60,45.5522847 60,45 L60,39 C60,38.4477153 59.5522847,38 59,38 Z M26,35 L26,34 L34,34 L34,35 C33.9987923,36.0823691 34.3505749,37.1356103 35.002,38 L24.998,38 C25.6494251,37.1356103 26.0012077,36.0823691 26,35 L26,35 Z M11.0405,52 L12.7548,46 L47.2448,46 L48.96,52 L11.0405,52 Z M58,44 L2,44 L2,40 L58,40 L58,44 Z" id="Shape" fill="#232328"></path><path d="M32,48 L28,48 C27.4477153,48 27,48.4477153 27,49 C27,49.5522847 27.4477153,50 28,50 L32,50 C32.5522847,50 33,49.5522847 33,49 C33,48.4477153 32.5522847,48 32,48 Z" id="Path" fill="#232328"></path><path d="M45,16 L45,34 C45.0018187,35.6561003 46.3438997,36.9981813 48,37 L56,37 C57.6561003,36.9981813 58.9981813,35.6561003 59,34 L59,16 C58.9981813,14.3438997 57.6561003,13.0018187 56,13 L48,13 C46.3438997,13.0018187 45.0018187,14.3438997 45,16 Z M57,16 L57,34 C56.9995038,34.5520791 56.5520791,34.9995038 56,35 L48,35 C47.4479209,34.9995038 47.0004962,34.5520791 47,34 L47,16 C47.0004962,15.4479209 47.4479209,15.0004962 48,15 L56,15 C56.5520791,15.0004962 56.9995038,15.4479209 57,16 Z" id="Shape" fill="#232328"></path><path d="M43,17 C43.5522847,17 44,16.5522847 44,16 C44.0023149,13.7918206 45.7918206,12.0023149 48,12 C48.5522847,12 49,11.5522847 49,11 C49,10.4477153 48.5522847,10 48,10 C44.6877993,10.0036374 42.0036374,12.6877993 42,16 C42,16.5522847 42.4477153,17 43,17 Z" id="Path" fill="#232328"></path><path d="M40,17 C40.5522847,17 41,16.5522847 41,16 C41.0044636,12.1358572 44.1358572,9.00446362 48,9 C48.5522847,9 49,8.55228475 49,8 C49,7.44771525 48.5522847,7 48,7 C43.0317218,7.00551113 39.0055111,11.0317218 39,16 C39,16.2652165 39.1053568,16.5195704 39.2928932,16.7071068 C39.4804296,16.8946432 39.7347835,17 40,17 Z" id="Path" fill="#232328"></path><path d="M49,5 C49,4.44771525 48.5522847,4 48,4 C41.3756443,4.00738483 36.0073848,9.37564431 36,16 C36,16.5522847 36.4477153,17 37,17 C37.5522847,17 38,16.5522847 38,16 C38.0062823,10.4797568 42.4797568,6.00628234 48,6 C48.5522847,6 49,5.55228475 49,5 Z" id="Path" fill="#232328"></path><circle id="Oval" fill="#232328" cx="49" cy="17" r="1"></circle><circle id="Oval" fill="#232328" cx="55" cy="17" r="1"></circle><circle id="Oval" fill="#232328" cx="52" cy="27" r="1"></circle><circle id="Oval" fill="#232328" cx="49" cy="27" r="1"></circle><circle id="Oval" fill="#232328" cx="55" cy="27" r="1"></circle><circle id="Oval" fill="#232328" cx="52" cy="30" r="1"></circle><circle id="Oval" fill="#232328" cx="49" cy="30" r="1"></circle><circle id="Oval" fill="#232328" cx="55" cy="30" r="1"></circle><circle id="Oval" fill="#232328" cx="52" cy="33" r="1"></circle><circle id="Oval" fill="#232328" cx="49" cy="33" r="1"></circle><circle id="Oval" fill="#232328" cx="55" cy="33" r="1"></circle><path d="M49,22 C49,23.6568542 50.3431458,25 52,25 C53.6568542,25 55,23.6568542 55,22 C55,20.3431458 53.6568542,19 52,19 C50.3438997,19.0018187 49.0018187,20.3438997 49,22 L49,22 Z M52,21 C52.5522847,21 53,21.4477153 53,22 C53,22.5522847 52.5522847,23 52,23 C51.4477153,23 51,22.5522847 51,22 C51.0004962,21.4479209 51.4479209,21.0004962 52,21 L52,21 Z" id="Shape" fill="#232328"></path><path d="M15,29 C14.4477153,29 14,29.4477153 14,30 C14,30.5522847 14.4477153,31 15,31 L19,31 C19.5522847,31 20,30.5522847 20,30 C20,29.4477153 19.5522847,29 19,29 L15,29 Z" id="Path" fill="#232328"></path><path d="M11,29 C10.4477153,29 10,29.4477153 10,30 C10,30.5522847 10.4477153,31 11,31 L12,31 C12.5522847,31 13,30.5522847 13,30 C13,29.4477153 12.5522847,29 12,29 L11,29 Z" id="Path" fill="#232328"></path></g></g></g></g></g></g></g></svg>