<svg xmlns="http://www.w3.org/2000/svg" xmlns:xlink="http://www.w3.org/1999/xlink" viewBox="0 0 28.8 25.38"><defs><style>.cls-1{isolation:isolate;}.cls-2{fill:#be2126;}.cls-3{fill:#e21f26;}.cls-4,.cls-5{opacity:0.1;mix-blend-mode:multiply;}.cls-4{fill:url(#Супермягкая_черная_виньетка);}.cls-5{fill:url(#Супермягкая_черная_виньетка-2);}</style><radialGradient id="&#x421;&#x443;&#x43F;&#x435;&#x440;&#x43C;&#x44F;&#x433;&#x43A;&#x430;&#x44F;_&#x447;&#x435;&#x440;&#x43D;&#x430;&#x44F;_&#x432;&#x438;&#x43D;&#x44C;&#x435;&#x442;&#x43A;&#x430;" cx="24.27" cy="7.56" r="3.38" gradientUnits="userSpaceOnUse"><stop offset="0.57" stop-color="#181615"></stop><stop offset="0.8" stop-color="#181615"></stop><stop offset="1" stop-color="#181615"></stop></radialGradient><radialGradient id="&#x421;&#x443;&#x43F;&#x435;&#x440;&#x43C;&#x44F;&#x433;&#x43A;&#x430;&#x44F;_&#x447;&#x435;&#x440;&#x43D;&#x430;&#x44F;_&#x432;&#x438;&#x43D;&#x44C;&#x435;&#x442;&#x43A;&#x430;-2" cx="10.69" cy="21.82" r="7.97" xlink:href="#&#x421;&#x443;&#x43F;&#x435;&#x440;&#x43C;&#x44F;&#x433;&#x43A;&#x430;&#x44F;_&#x447;&#x435;&#x440;&#x43D;&#x430;&#x44F;_&#x432;&#x438;&#x43D;&#x44C;&#x435;&#x442;&#x43A;&#x430;"></radialGradient></defs><g class="cls-1"><g id="Layer_1" data-name="Layer 1"><polygon class="cls-2" points="22.75 0 19.73 3.02 19.73 9.07 25.78 9.07 28.8 6.04 28.8 0 22.75 0"></polygon><rect class="cls-3" x="22.76" width="6.04" height="6.04"></rect><polygon class="cls-4" points="19.73 9.07 22.75 6.04 28.8 6.04 25.78 9.07 19.73 9.07"></polygon><polygon class="cls-2" points="7.13 3.99 0 11.12 0 25.38 14.26 25.38 21.39 18.25 21.39 3.99 7.13 3.99"></polygon><rect class="cls-3" x="7.13" y="3.99" width="14.26" height="14.26"></rect><polygon class="cls-5" points="0 25.38 7.13 18.25 21.39 18.25 14.26 25.38 0 25.38"></polygon></g></g></svg>