<svg xmlns="http://www.w3.org/2000/svg" xmlns:xlink="http://www.w3.org/1999/xlink" viewBox="0 0 77.56 68.36"><defs><style>.cls-1{isolation:isolate;}.cls-2{fill:#78909c;}.cls-3{fill:#f5f7f8;}.cls-4,.cls-5{opacity:0.1;mix-blend-mode:multiply;}.cls-4{fill:url(#Супермягкая_черная_виньетка);}.cls-5{fill:url(#Супермягкая_черная_виньетка-2);}</style><radialGradient id="&#x421;&#x443;&#x43F;&#x435;&#x440;&#x43C;&#x44F;&#x433;&#x43A;&#x430;&#x44F;_&#x447;&#x435;&#x440;&#x43D;&#x430;&#x44F;_&#x432;&#x438;&#x43D;&#x44C;&#x435;&#x442;&#x43A;&#x430;" cx="1280.56" cy="-6201.31" r="22.75" gradientTransform="translate(-446.88 2500.87) scale(0.4)" gradientUnits="userSpaceOnUse"><stop offset="0.57" stop-color="#181615"></stop><stop offset="0.8" stop-color="#181615"></stop><stop offset="1" stop-color="#181615"></stop></radialGradient><radialGradient id="&#x421;&#x443;&#x43F;&#x435;&#x440;&#x43C;&#x44F;&#x433;&#x43A;&#x430;&#x44F;_&#x447;&#x435;&#x440;&#x43D;&#x430;&#x44F;_&#x432;&#x438;&#x43D;&#x44C;&#x435;&#x442;&#x43A;&#x430;-2" cx="1189.19" cy="-6105.29" r="53.67" xlink:href="#&#x421;&#x443;&#x43F;&#x435;&#x440;&#x43C;&#x44F;&#x433;&#x43A;&#x430;&#x44F;_&#x447;&#x435;&#x440;&#x43D;&#x430;&#x44F;_&#x432;&#x438;&#x43D;&#x44C;&#x435;&#x442;&#x43A;&#x430;"></radialGradient></defs><g class="cls-1"><g id="Layer_1" data-name="Layer 1"><polygon class="cls-2" points="61.28 0 53.14 8.14 53.14 24.42 69.42 24.42 77.56 16.28 77.56 0 61.28 0"></polygon><rect class="cls-3" x="61.28" width="16.28" height="16.28"></rect><polygon class="cls-4" points="53.14 24.42 61.28 16.28 77.56 16.28 69.42 24.42 53.14 24.42"></polygon><polygon class="cls-2" points="19.2 10.76 0 29.96 0 68.36 38.4 68.36 57.6 49.16 57.6 10.76 19.2 10.76"></polygon><rect class="cls-3" x="19.2" y="10.76" width="38.4" height="38.4"></rect><polygon class="cls-5" points="0 68.36 19.2 49.16 57.6 49.16 38.4 68.36 0 68.36"></polygon></g></g></svg>